<svg width="151" height="40" viewBox="0 0 151 40" fill="none" xmlns="http://www.w3.org/2000/svg">
<path d="M45.728 30H57.608V27.12H48.992V22.464H57.128V19.584H48.992V15H57.608V12.12H45.728V30ZM64.7054 30.288C65.6974 30.288 66.5614 30.12 67.2974 29.784C68.0334 29.448 68.6094 28.984 69.0254 28.392C69.4414 27.784 69.6494 27.088 69.6494 26.304C69.6494 25.392 69.3614 24.608 68.7854 23.952C68.2094 23.296 67.3774 22.816 66.2894 22.512L64.2014 21.888C63.7534 21.76 63.3854 21.592 63.0974 21.384C62.8094 21.176 62.6654 20.888 62.6654 20.52C62.6654 20.136 62.8174 19.824 63.1214 19.584C63.4254 19.344 63.8414 19.224 64.3694 19.224C65.0254 19.224 65.6174 19.4 66.1454 19.752C66.6894 20.104 67.0654 20.576 67.2734 21.168L69.6734 20.04C69.2734 18.984 68.6014 18.16 67.6574 17.568C66.7134 16.96 65.6254 16.656 64.3934 16.656C63.4494 16.656 62.6094 16.824 61.8734 17.16C61.1534 17.496 60.5854 17.968 60.1694 18.576C59.7694 19.168 59.5694 19.864 59.5694 20.664C59.5694 21.56 59.8494 22.336 60.4094 22.992C60.9854 23.648 61.8254 24.136 62.9294 24.456L65.0654 25.056C65.4814 25.168 65.8334 25.336 66.1214 25.56C66.4254 25.768 66.5774 26.056 66.5774 26.424C66.5774 26.856 66.4014 27.2 66.0494 27.456C65.7134 27.696 65.2654 27.816 64.7054 27.816C63.9694 27.816 63.3054 27.608 62.7134 27.192C62.1214 26.776 61.6494 26.2 61.2974 25.464L58.9454 26.592C59.3294 27.712 60.0334 28.608 61.0574 29.28C62.0974 29.952 63.3134 30.288 64.7054 30.288ZM78.0176 30.144C78.5456 30.144 79.0656 30.104 79.5776 30.024V27.312C79.2736 27.36 78.9936 27.384 78.7376 27.384C77.9696 27.384 77.4096 27.208 77.0576 26.856C76.7056 26.504 76.5296 26 76.5296 25.344V19.752H79.5296V16.944H76.5296V13.968H73.3856V14.976C73.3856 15.616 73.2096 16.104 72.8576 16.44C72.5056 16.776 72.0096 16.944 71.3696 16.944H71.1296V19.752H73.3856V25.512C73.3856 26.968 73.7856 28.104 74.5856 28.92C75.4016 29.736 76.5456 30.144 78.0176 30.144ZM85.8693 30.288C87.5653 30.288 88.9253 29.728 89.9493 28.608V30H92.9253V21.312C92.9253 20.4 92.6933 19.592 92.2293 18.888C91.7653 18.184 91.1253 17.64 90.3093 17.256C89.5093 16.856 88.5733 16.656 87.5013 16.656C86.1893 16.656 85.0213 16.968 83.9973 17.592C82.9733 18.216 82.2693 19.04 81.8853 20.064L84.4533 21.312C84.6933 20.72 85.0693 20.248 85.5813 19.896C86.0933 19.528 86.6933 19.344 87.3813 19.344C88.1013 19.344 88.6773 19.536 89.1093 19.92C89.5573 20.288 89.7813 20.752 89.7813 21.312V21.744L85.8933 22.368C84.3573 22.624 83.2213 23.112 82.4853 23.832C81.7493 24.552 81.3813 25.456 81.3813 26.544C81.3813 27.696 81.7893 28.608 82.6053 29.28C83.4213 29.952 84.5093 30.288 85.8693 30.288ZM84.6453 26.424C84.6453 25.512 85.2613 24.936 86.4933 24.696L89.7813 24.144V24.672C89.7813 25.568 89.4693 26.328 88.8453 26.952C88.2373 27.576 87.4373 27.888 86.4453 27.888C85.9173 27.888 85.4853 27.76 85.1493 27.504C84.8133 27.232 84.6453 26.872 84.6453 26.424ZM101.549 30.144C102.077 30.144 102.597 30.104 103.109 30.024V27.312C102.805 27.36 102.525 27.384 102.269 27.384C101.501 27.384 100.941 27.208 100.589 26.856C100.237 26.504 100.061 26 100.061 25.344V19.752H103.061V16.944H100.061V13.968H96.9168V14.976C96.9168 15.616 96.7408 16.104 96.3888 16.44C96.0368 16.776 95.5408 16.944 94.9008 16.944H94.6608V19.752H96.9168V25.512C96.9168 26.968 97.3168 28.104 98.1168 28.92C98.9328 29.736 100.077 30.144 101.549 30.144ZM111.586 30.288C112.914 30.288 114.074 29.992 115.066 29.4C116.074 28.792 116.778 28.024 117.178 27.096L114.634 25.848C114.346 26.344 113.946 26.752 113.434 27.072C112.938 27.376 112.33 27.528 111.61 27.528C110.666 27.528 109.874 27.24 109.234 26.664C108.594 26.088 108.226 25.32 108.13 24.36H117.538C117.602 24.184 117.642 23.984 117.658 23.76C117.69 23.52 117.706 23.28 117.706 23.04C117.706 21.872 117.458 20.808 116.962 19.848C116.466 18.888 115.746 18.12 114.802 17.544C113.858 16.952 112.706 16.656 111.346 16.656C110.13 16.656 109.026 16.952 108.034 17.544C107.058 18.136 106.282 18.944 105.706 19.968C105.146 20.976 104.866 22.136 104.866 23.448C104.866 24.712 105.146 25.864 105.706 26.904C106.266 27.944 107.05 28.768 108.058 29.376C109.066 29.984 110.242 30.288 111.586 30.288ZM111.346 19.248C112.178 19.248 112.866 19.504 113.41 20.016C113.97 20.512 114.282 21.16 114.346 21.96H108.202C108.378 21.096 108.746 20.432 109.306 19.968C109.882 19.488 110.562 19.248 111.346 19.248ZM120.089 30H123.233V22.728C123.233 21.736 123.505 20.968 124.049 20.424C124.609 19.864 125.329 19.584 126.209 19.584H127.337V16.8H126.569C125.769 16.8 125.065 16.944 124.457 17.232C123.849 17.52 123.377 18.04 123.041 18.792V16.944H120.089V30ZM130.65 35.304C131.882 35.304 132.906 34.952 133.722 34.248C134.554 33.56 135.218 32.584 135.714 31.32L141.402 16.944H137.994L134.634 25.944L131.25 16.944H127.866L133.026 30L132.738 30.696C132.482 31.24 132.186 31.68 131.85 32.016C131.53 32.352 131.01 32.52 130.29 32.52C130.034 32.52 129.762 32.496 129.474 32.448C129.186 32.416 128.93 32.368 128.706 32.304V34.944C128.978 35.072 129.282 35.16 129.618 35.208C129.954 35.272 130.298 35.304 130.65 35.304Z" fill="#0E0854"/>
<g clip-path="url(#clip0_601_3346)">
<path d="M33.3335 15.6137L26.2229 10.083C25.5989 9.59755 24.8308 9.33398 24.0402 9.33398C23.2496 9.33398 22.4816 9.59755 21.8575 10.083L14.7455 15.6137C14.3181 15.9461 13.9723 16.3717 13.7345 16.8581C13.4968 17.3446 13.3733 17.8789 13.3735 18.4203V28.0203C13.3735 28.7276 13.6545 29.4059 14.1546 29.906C14.6547 30.4061 15.333 30.687 16.0402 30.687H32.0402C32.7474 30.687 33.4257 30.4061 33.9258 29.906C34.4259 29.4059 34.7069 28.7276 34.7069 28.0203V18.4203C34.7069 17.323 34.2002 16.287 33.3335 15.6137Z" fill="#7065F0" stroke="#7065F0" stroke-width="3" stroke-linecap="round" stroke-linejoin="round"/>
<path d="M29.3332 24C26.3865 25.7773 21.6105 25.7773 18.6665 24" stroke="#F9FAFB" stroke-width="3" stroke-linecap="round" stroke-linejoin="round"/>
</g>
<defs>
<clipPath id="clip0_601_3346">
<rect width="32" height="32" fill="white" transform="translate(8 4)"/>
</clipPath>
</defs>
</svg>
