<svg width="500" height="212" viewBox="0 0 500 212" fill="none" xmlns="http://www.w3.org/2000/svg">
<g filter="url(#filter0_d_601_2331)">
<rect x="40" y="50" width="410" height="112" rx="8" fill="white"/>
<rect x="40.75" y="50.75" width="408.5" height="110.5" rx="7.25" stroke="#E0DEF7" stroke-width="1.5"/>
</g>
<circle cx="104" cy="106" r="31" fill="#F0EFFB" stroke="#D9D6F5" stroke-width="2"/>
<path d="M100 119.333H108C114.667 119.333 117.333 116.667 117.333 110V102C117.333 95.3334 114.667 92.6667 108 92.6667H100C93.3334 92.6667 90.6667 95.3334 90.6667 102V110C90.6667 116.667 93.3334 119.333 100 119.333Z" stroke="#7065F0" stroke-width="3" stroke-linecap="round" stroke-linejoin="round"/>
<path d="M100.133 106V104.026C100.133 101.48 101.933 100.453 104.133 101.72L105.84 102.706L107.547 103.693C109.747 104.96 109.747 107.04 107.547 108.306L105.84 109.293L104.133 110.28C101.933 111.546 100.133 110.506 100.133 107.973V106Z" stroke="#7065F0" stroke-width="3" stroke-miterlimit="10" stroke-linecap="round" stroke-linejoin="round"/>
<path d="M165.42 100H168.54L173.72 85.1H170.76L166.98 96.56L163.18 85.1H160.22L165.42 100ZM175.065 87.9H177.685V85.1H175.065V87.9ZM175.065 100H177.685V89.12H175.065V100ZM180.004 100H182.624V93.94C182.624 93.1133 182.851 92.4733 183.304 92.02C183.771 91.5533 184.371 91.32 185.104 91.32H186.044V89H185.404C184.738 89 184.151 89.12 183.644 89.36C183.138 89.6 182.744 90.0333 182.464 90.66V89.12H180.004V100ZM192.638 100.12C193.078 100.12 193.511 100.087 193.938 100.02V97.76C193.684 97.8 193.451 97.82 193.238 97.82C192.598 97.82 192.131 97.6733 191.838 97.38C191.544 97.0867 191.398 96.6667 191.398 96.12V91.46H193.898V89.12H191.398V86.64H188.778V87.48C188.778 88.0133 188.631 88.42 188.338 88.7C188.044 88.98 187.631 89.12 187.098 89.12H186.898V91.46H188.778V96.26C188.778 97.4733 189.111 98.42 189.778 99.1C190.458 99.78 191.411 100.12 192.638 100.12ZM199.72 100.24C200.4 100.24 201 100.113 201.52 99.86C202.053 99.5933 202.473 99.2067 202.78 98.7V100H205.26V89.12H202.64V95.5C202.64 96.22 202.433 96.7933 202.02 97.22C201.606 97.6333 201.08 97.84 200.44 97.84C199.786 97.84 199.253 97.6333 198.84 97.22C198.44 96.8067 198.24 96.2533 198.24 95.56V89.12H195.62V95.78C195.62 97.1133 195.98 98.1933 196.7 99.02C197.433 99.8333 198.44 100.24 199.72 100.24ZM210.895 100.24C212.308 100.24 213.442 99.7733 214.295 98.84V100H216.775V92.76C216.775 92 216.582 91.3267 216.195 90.74C215.808 90.1533 215.275 89.7 214.595 89.38C213.928 89.0467 213.148 88.88 212.255 88.88C211.162 88.88 210.188 89.14 209.335 89.66C208.482 90.18 207.895 90.8667 207.575 91.72L209.715 92.76C209.915 92.2667 210.228 91.8733 210.655 91.58C211.082 91.2733 211.582 91.12 212.155 91.12C212.755 91.12 213.235 91.28 213.595 91.6C213.968 91.9067 214.155 92.2933 214.155 92.76V93.12L210.915 93.64C209.635 93.8533 208.688 94.26 208.075 94.86C207.462 95.46 207.155 96.2133 207.155 97.12C207.155 98.08 207.495 98.84 208.175 99.4C208.855 99.96 209.762 100.24 210.895 100.24ZM209.875 97.02C209.875 96.26 210.388 95.78 211.415 95.58L214.155 95.12V95.56C214.155 96.3067 213.895 96.94 213.375 97.46C212.868 97.98 212.202 98.24 211.375 98.24C210.935 98.24 210.575 98.1333 210.295 97.92C210.015 97.6933 209.875 97.3933 209.875 97.02ZM219.097 100H221.717V84.86H219.097V100ZM227.49 100H230.11V93.62C230.11 92.9133 230.317 92.3467 230.73 91.92C231.144 91.4933 231.67 91.28 232.31 91.28C232.95 91.28 233.477 91.4933 233.89 91.92C234.304 92.3333 234.51 92.9 234.51 93.62V100H237.13V93C237.13 92.1867 236.957 91.4733 236.61 90.86C236.264 90.2333 235.777 89.7467 235.15 89.4C234.537 89.0533 233.83 88.88 233.03 88.88C232.404 88.88 231.837 88.9933 231.33 89.22C230.824 89.4333 230.417 89.76 230.11 90.2V84.86H227.49V100ZM244.566 100.24C245.619 100.24 246.579 100 247.446 99.52C248.312 99.0267 249.006 98.3533 249.526 97.5C250.046 96.6333 250.306 95.6533 250.306 94.56C250.306 93.4667 250.046 92.4933 249.526 91.64C249.019 90.7867 248.332 90.1133 247.466 89.62C246.599 89.1267 245.632 88.88 244.566 88.88C243.486 88.88 242.512 89.1267 241.646 89.62C240.779 90.1133 240.086 90.7867 239.566 91.64C239.059 92.4933 238.806 93.4667 238.806 94.56C238.806 95.6533 239.059 96.6267 239.566 97.48C240.086 98.3333 240.779 99.0067 241.646 99.5C242.526 99.9933 243.499 100.24 244.566 100.24ZM244.566 97.84C243.979 97.84 243.452 97.7 242.986 97.42C242.532 97.14 242.172 96.7533 241.906 96.26C241.652 95.7533 241.526 95.1867 241.526 94.56C241.526 93.9333 241.652 93.3733 241.906 92.88C242.172 92.3867 242.532 92 242.986 91.72C243.452 91.4267 243.979 91.28 244.566 91.28C245.152 91.28 245.666 91.4267 246.106 91.72C246.559 92 246.912 92.3867 247.166 92.88C247.432 93.3733 247.566 93.9333 247.566 94.56C247.566 95.1867 247.432 95.7533 247.166 96.26C246.912 96.7533 246.559 97.14 246.106 97.42C245.666 97.7 245.152 97.84 244.566 97.84ZM252.193 100H254.813V93.62C254.813 92.9133 255.006 92.3467 255.393 91.92C255.779 91.4933 256.286 91.28 256.913 91.28C257.553 91.28 258.059 91.4933 258.433 91.92C258.819 92.3333 259.013 92.9 259.013 93.62V100H261.633V93.62C261.633 92.9133 261.826 92.3467 262.213 91.92C262.599 91.4933 263.106 91.28 263.733 91.28C264.373 91.28 264.879 91.4933 265.253 91.92C265.639 92.3333 265.833 92.9 265.833 93.62V100H268.453V93C268.453 92.1867 268.273 91.4733 267.913 90.86C267.566 90.2333 267.093 89.7467 266.493 89.4C265.893 89.0533 265.206 88.88 264.433 88.88C263.713 88.88 263.059 89.0267 262.473 89.32C261.899 89.6133 261.426 90.0533 261.053 90.64C260.733 90.1067 260.273 89.68 259.673 89.36C259.086 89.04 258.426 88.88 257.693 88.88C257.013 88.88 256.406 89.0133 255.873 89.28C255.339 89.5467 254.933 89.9467 254.653 90.48V89.12H252.193V100ZM275.729 100.24C276.836 100.24 277.803 99.9933 278.629 99.5C279.469 98.9933 280.056 98.3533 280.389 97.58L278.269 96.54C278.029 96.9533 277.696 97.2933 277.269 97.56C276.856 97.8133 276.349 97.94 275.749 97.94C274.963 97.94 274.303 97.7 273.769 97.22C273.236 96.74 272.929 96.1 272.849 95.3H280.689C280.743 95.1533 280.776 94.9867 280.789 94.8C280.816 94.6 280.829 94.4 280.829 94.2C280.829 93.2267 280.623 92.34 280.209 91.54C279.796 90.74 279.196 90.1 278.409 89.62C277.623 89.1267 276.663 88.88 275.529 88.88C274.516 88.88 273.596 89.1267 272.769 89.62C271.956 90.1133 271.309 90.7867 270.829 91.64C270.363 92.48 270.129 93.4467 270.129 94.54C270.129 95.5933 270.363 96.5533 270.829 97.42C271.296 98.2867 271.949 98.9733 272.789 99.48C273.629 99.9867 274.609 100.24 275.729 100.24ZM275.529 91.04C276.223 91.04 276.796 91.2533 277.249 91.68C277.716 92.0933 277.976 92.6333 278.029 93.3H272.909C273.056 92.58 273.363 92.0267 273.829 91.64C274.309 91.24 274.876 91.04 275.529 91.04ZM291.13 100.12C291.57 100.12 292.003 100.087 292.43 100.02V97.76C292.177 97.8 291.943 97.82 291.73 97.82C291.09 97.82 290.623 97.6733 290.33 97.38C290.037 97.0867 289.89 96.6667 289.89 96.12V91.46H292.39V89.12H289.89V86.64H287.27V87.48C287.27 88.0133 287.123 88.42 286.83 88.7C286.537 88.98 286.123 89.12 285.59 89.12H285.39V91.46H287.27V96.26C287.27 97.4733 287.603 98.42 288.27 99.1C288.95 99.78 289.903 100.12 291.13 100.12ZM299.554 100.24C300.607 100.24 301.567 100 302.434 99.52C303.301 99.0267 303.994 98.3533 304.514 97.5C305.034 96.6333 305.294 95.6533 305.294 94.56C305.294 93.4667 305.034 92.4933 304.514 91.64C304.007 90.7867 303.321 90.1133 302.454 89.62C301.587 89.1267 300.621 88.88 299.554 88.88C298.474 88.88 297.501 89.1267 296.634 89.62C295.767 90.1133 295.074 90.7867 294.554 91.64C294.047 92.4933 293.794 93.4667 293.794 94.56C293.794 95.6533 294.047 96.6267 294.554 97.48C295.074 98.3333 295.767 99.0067 296.634 99.5C297.514 99.9933 298.487 100.24 299.554 100.24ZM299.554 97.84C298.967 97.84 298.441 97.7 297.974 97.42C297.521 97.14 297.161 96.7533 296.894 96.26C296.641 95.7533 296.514 95.1867 296.514 94.56C296.514 93.9333 296.641 93.3733 296.894 92.88C297.161 92.3867 297.521 92 297.974 91.72C298.441 91.4267 298.967 91.28 299.554 91.28C300.141 91.28 300.654 91.4267 301.094 91.72C301.547 92 301.901 92.3867 302.154 92.88C302.421 93.3733 302.554 93.9333 302.554 94.56C302.554 95.1867 302.421 95.7533 302.154 96.26C301.901 96.7533 301.547 97.14 301.094 97.42C300.654 97.7 300.141 97.84 299.554 97.84ZM311.061 100.24C311.741 100.24 312.341 100.113 312.861 99.86C313.394 99.5933 313.814 99.2067 314.121 98.7V100H316.601V89.12H313.981V95.5C313.981 96.22 313.774 96.7933 313.361 97.22C312.948 97.6333 312.421 97.84 311.781 97.84C311.128 97.84 310.594 97.6333 310.181 97.22C309.781 96.8067 309.581 96.2533 309.581 95.56V89.12H306.961V95.78C306.961 97.1133 307.321 98.1933 308.041 99.02C308.774 99.8333 309.781 100.24 311.061 100.24ZM318.936 100H321.556V93.94C321.556 93.1133 321.783 92.4733 322.236 92.02C322.703 91.5533 323.303 91.32 324.036 91.32H324.976V89H324.336C323.67 89 323.083 89.12 322.576 89.36C322.07 89.6 321.676 90.0333 321.396 90.66V89.12H318.936V100Z" fill="#100A55"/>
<path d="M163.6 130H164.96L167.872 119.792L170.784 130H172.144L175.568 118.08H174.272L171.44 128.24L168.56 118.08H167.2L164.304 128.272L161.472 118.08H160.176L163.6 130ZM180.245 130.192C180.832 130.192 181.365 130.096 181.845 129.904C182.336 129.701 182.757 129.44 183.109 129.12C183.461 128.789 183.723 128.432 183.893 128.048L182.869 127.504C182.603 127.952 182.256 128.325 181.829 128.624C181.403 128.923 180.875 129.072 180.245 129.072C179.733 129.072 179.253 128.949 178.805 128.704C178.357 128.459 177.989 128.117 177.701 127.68C177.424 127.232 177.275 126.699 177.253 126.08H184.005C184.027 125.941 184.043 125.808 184.053 125.68C184.064 125.541 184.069 125.419 184.069 125.312C184.069 124.8 183.979 124.304 183.797 123.824C183.616 123.333 183.355 122.896 183.013 122.512C182.672 122.117 182.256 121.808 181.765 121.584C181.285 121.349 180.736 121.232 180.117 121.232C179.339 121.232 178.635 121.424 178.005 121.808C177.387 122.192 176.896 122.72 176.533 123.392C176.171 124.053 175.989 124.816 175.989 125.68C175.989 126.544 176.176 127.317 176.549 128C176.923 128.683 177.429 129.221 178.069 129.616C178.72 130 179.445 130.192 180.245 130.192ZM180.117 122.352C180.597 122.352 181.035 122.464 181.429 122.688C181.835 122.912 182.155 123.221 182.389 123.616C182.635 124 182.763 124.448 182.773 124.96H177.285C177.349 124.427 177.515 123.968 177.781 123.584C178.059 123.189 178.4 122.885 178.805 122.672C179.211 122.459 179.648 122.352 180.117 122.352ZM188.904 133.2H190.104V128.608C190.424 129.109 190.861 129.499 191.416 129.776C191.971 130.053 192.579 130.192 193.24 130.192C194.051 130.192 194.771 130 195.4 129.616C196.04 129.221 196.541 128.688 196.904 128.016C197.277 127.333 197.464 126.565 197.464 125.712C197.464 124.848 197.277 124.08 196.904 123.408C196.541 122.736 196.04 122.208 195.4 121.824C194.771 121.429 194.051 121.232 193.24 121.232C192.568 121.232 191.965 121.365 191.432 121.632C190.899 121.899 190.456 122.261 190.104 122.72V121.424H188.904V133.2ZM193.176 128.992C192.6 128.992 192.077 128.848 191.608 128.56C191.149 128.272 190.781 127.883 190.504 127.392C190.237 126.891 190.104 126.331 190.104 125.712C190.104 125.093 190.237 124.539 190.504 124.048C190.781 123.547 191.149 123.152 191.608 122.864C192.077 122.576 192.6 122.432 193.176 122.432C193.752 122.432 194.264 122.576 194.712 122.864C195.171 123.152 195.528 123.541 195.784 124.032C196.051 124.523 196.184 125.083 196.184 125.712C196.184 126.331 196.051 126.891 195.784 127.392C195.528 127.883 195.171 128.272 194.712 128.56C194.264 128.848 193.752 128.992 193.176 128.992ZM199.576 130H200.776V124.72C200.776 124.016 200.962 123.472 201.336 123.088C201.709 122.704 202.205 122.512 202.824 122.512H203.576V121.312H203.032C202.509 121.312 202.056 121.403 201.672 121.584C201.298 121.765 201 122.021 200.776 122.352V121.424H199.576V130ZM208.998 130.192C209.798 130.192 210.523 130 211.174 129.616C211.835 129.232 212.363 128.704 212.758 128.032C213.153 127.349 213.35 126.571 213.35 125.696C213.35 124.832 213.158 124.064 212.774 123.392C212.401 122.72 211.883 122.192 211.222 121.808C210.571 121.424 209.83 121.232 208.998 121.232C208.166 121.232 207.419 121.429 206.758 121.824C206.107 122.208 205.59 122.736 205.206 123.408C204.822 124.08 204.63 124.843 204.63 125.696C204.63 126.56 204.822 127.333 205.206 128.016C205.601 128.688 206.129 129.221 206.79 129.616C207.451 130 208.187 130.192 208.998 130.192ZM208.998 128.992C208.422 128.992 207.899 128.848 207.43 128.56C206.971 128.272 206.603 127.877 206.326 127.376C206.049 126.875 205.91 126.315 205.91 125.696C205.91 125.077 206.049 124.523 206.326 124.032C206.603 123.541 206.971 123.152 207.43 122.864C207.899 122.576 208.422 122.432 208.998 122.432C209.574 122.432 210.091 122.576 210.55 122.864C211.019 123.152 211.387 123.541 211.654 124.032C211.931 124.523 212.07 125.077 212.07 125.696C212.07 126.315 211.931 126.875 211.654 127.376C211.387 127.877 211.019 128.272 210.55 128.56C210.091 128.848 209.574 128.992 208.998 128.992ZM217.598 130H218.798L222.174 121.424H220.814L218.206 128.368L215.598 121.424H214.254L217.598 130ZM223.576 119.84H224.776V118.08H223.576V119.84ZM223.576 130H224.776V121.424H223.576V130ZM231.104 130.192C231.765 130.192 232.373 130.053 232.928 129.776C233.483 129.499 233.92 129.109 234.24 128.608V130H235.44V117.888H234.24V122.72C233.888 122.261 233.445 121.899 232.912 121.632C232.379 121.365 231.776 121.232 231.104 121.232C230.293 121.232 229.568 121.429 228.928 121.824C228.299 122.208 227.797 122.736 227.424 123.408C227.061 124.08 226.88 124.848 226.88 125.712C226.88 126.565 227.061 127.333 227.424 128.016C227.797 128.688 228.304 129.221 228.944 129.616C229.584 130 230.304 130.192 231.104 130.192ZM231.168 128.992C230.592 128.992 230.075 128.848 229.616 128.56C229.168 128.272 228.811 127.883 228.544 127.392C228.288 126.891 228.16 126.331 228.16 125.712C228.16 125.083 228.288 124.523 228.544 124.032C228.811 123.541 229.173 123.152 229.632 122.864C230.091 122.576 230.603 122.432 231.168 122.432C231.744 122.432 232.261 122.576 232.72 122.864C233.189 123.152 233.557 123.547 233.824 124.048C234.101 124.539 234.24 125.093 234.24 125.712C234.24 126.331 234.101 126.891 233.824 127.392C233.557 127.883 233.189 128.272 232.72 128.56C232.261 128.848 231.744 128.992 231.168 128.992ZM241.808 130.192C242.395 130.192 242.928 130.096 243.408 129.904C243.899 129.701 244.32 129.44 244.672 129.12C245.024 128.789 245.285 128.432 245.456 128.048L244.432 127.504C244.165 127.952 243.819 128.325 243.392 128.624C242.965 128.923 242.437 129.072 241.808 129.072C241.296 129.072 240.816 128.949 240.368 128.704C239.92 128.459 239.552 128.117 239.264 127.68C238.987 127.232 238.837 126.699 238.816 126.08H245.568C245.589 125.941 245.605 125.808 245.616 125.68C245.627 125.541 245.632 125.419 245.632 125.312C245.632 124.8 245.541 124.304 245.36 123.824C245.179 123.333 244.917 122.896 244.576 122.512C244.235 122.117 243.819 121.808 243.328 121.584C242.848 121.349 242.299 121.232 241.68 121.232C240.901 121.232 240.197 121.424 239.568 121.808C238.949 122.192 238.459 122.72 238.096 123.392C237.733 124.053 237.552 124.816 237.552 125.68C237.552 126.544 237.739 127.317 238.112 128C238.485 128.683 238.992 129.221 239.632 129.616C240.283 130 241.008 130.192 241.808 130.192ZM241.68 122.352C242.16 122.352 242.597 122.464 242.992 122.688C243.397 122.912 243.717 123.221 243.952 123.616C244.197 124 244.325 124.448 244.336 124.96H238.848C238.912 124.427 239.077 123.968 239.344 123.584C239.621 123.189 239.963 122.885 240.368 122.672C240.773 122.459 241.211 122.352 241.68 122.352ZM250.642 133.52C251.208 133.52 251.688 133.403 252.082 133.168C252.477 132.944 252.802 132.645 253.058 132.272C253.325 131.899 253.544 131.504 253.714 131.088L257.634 121.408H256.306L253.506 128.496L250.706 121.408H249.41L252.834 130L252.53 130.736C252.264 131.355 251.992 131.771 251.714 131.984C251.437 132.208 251.037 132.32 250.514 132.32C250.344 132.32 250.173 132.304 250.002 132.272C249.842 132.251 249.709 132.235 249.602 132.224V133.344C249.773 133.408 249.944 133.451 250.114 133.472C250.296 133.504 250.472 133.52 250.642 133.52ZM262.904 130.192C263.704 130.192 264.43 130 265.08 129.616C265.742 129.232 266.27 128.704 266.664 128.032C267.059 127.349 267.256 126.571 267.256 125.696C267.256 124.832 267.064 124.064 266.68 123.392C266.307 122.72 265.79 122.192 265.128 121.808C264.478 121.424 263.736 121.232 262.904 121.232C262.072 121.232 261.326 121.429 260.664 121.824C260.014 122.208 259.496 122.736 259.112 123.408C258.728 124.08 258.536 124.843 258.536 125.696C258.536 126.56 258.728 127.333 259.112 128.016C259.507 128.688 260.035 129.221 260.696 129.616C261.358 130 262.094 130.192 262.904 130.192ZM262.904 128.992C262.328 128.992 261.806 128.848 261.336 128.56C260.878 128.272 260.51 127.877 260.232 127.376C259.955 126.875 259.816 126.315 259.816 125.696C259.816 125.077 259.955 124.523 260.232 124.032C260.51 123.541 260.878 123.152 261.336 122.864C261.806 122.576 262.328 122.432 262.904 122.432C263.48 122.432 263.998 122.576 264.456 122.864C264.926 123.152 265.294 123.541 265.56 124.032C265.838 124.523 265.976 125.077 265.976 125.696C265.976 126.315 265.838 126.875 265.56 127.376C265.294 127.877 264.926 128.272 264.456 128.56C263.998 128.848 263.48 128.992 262.904 128.992ZM272.413 130.192C272.946 130.192 273.426 130.08 273.853 129.856C274.279 129.632 274.621 129.328 274.877 128.944V130H276.077V121.424H274.877V126.528C274.877 127.296 274.663 127.899 274.237 128.336C273.821 128.773 273.282 128.992 272.621 128.992C271.97 128.992 271.437 128.784 271.021 128.368C270.605 127.941 270.397 127.381 270.397 126.688V121.424H269.197V126.832C269.197 127.493 269.335 128.08 269.613 128.592C269.901 129.093 270.29 129.488 270.781 129.776C271.271 130.053 271.815 130.192 272.413 130.192ZM283.151 130H284.351L286.415 123.216L288.463 130H289.663L292.607 121.424H291.263L289.071 128.16L287.007 121.424H285.807L283.759 128.16L281.567 121.424H280.207L283.151 130ZM294.013 119.84H295.213V118.08H294.013V119.84ZM294.013 130H295.213V121.424H294.013V130ZM300.95 130.096C301.046 130.096 301.174 130.091 301.334 130.08C301.494 130.069 301.638 130.048 301.766 130.016V128.928C301.68 128.939 301.579 128.949 301.462 128.96C301.344 128.971 301.243 128.976 301.158 128.976C300.624 128.976 300.256 128.837 300.054 128.56C299.851 128.283 299.75 127.931 299.75 127.504V122.624H301.638V121.424H299.75V119.44H298.549V120.16C298.549 120.523 298.443 120.827 298.23 121.072C298.016 121.307 297.728 121.424 297.366 121.424H296.965V122.624H298.549V127.504C298.549 128.336 298.758 128.976 299.174 129.424C299.59 129.872 300.182 130.096 300.95 130.096ZM303.873 130H305.073V124.896C305.073 124.128 305.286 123.525 305.713 123.088C306.15 122.651 306.689 122.432 307.329 122.432C307.969 122.432 308.497 122.651 308.913 123.088C309.339 123.515 309.553 124.117 309.553 124.896V130H310.753V124.432C310.753 123.824 310.609 123.28 310.321 122.8C310.043 122.309 309.659 121.925 309.169 121.648C308.689 121.371 308.145 121.232 307.537 121.232C307.003 121.232 306.523 121.344 306.097 121.568C305.67 121.792 305.329 122.096 305.073 122.48V117.888H303.873V130ZM318.051 130H319.251L322.627 121.424H321.267L318.659 128.368L316.051 121.424H314.707L318.051 130ZM324.029 119.84H325.229V118.08H324.029V119.84ZM324.029 130H325.229V121.424H324.029V130ZM327.685 130H328.885V124.72C328.885 124.016 329.072 123.472 329.445 123.088C329.818 122.704 330.314 122.512 330.933 122.512H331.685V121.312H331.141C330.618 121.312 330.165 121.403 329.781 121.584C329.408 121.765 329.109 122.021 328.885 122.352V121.424H327.685V130ZM336.371 130.096C336.467 130.096 336.595 130.091 336.755 130.08C336.915 130.069 337.059 130.048 337.187 130.016V128.928C337.102 128.939 337.001 128.949 336.883 128.96C336.766 128.971 336.665 128.976 336.579 128.976C336.046 128.976 335.678 128.837 335.475 128.56C335.273 128.283 335.171 127.931 335.171 127.504V122.624H337.059V121.424H335.171V119.44H333.971V120.16C333.971 120.523 333.865 120.827 333.651 121.072C333.438 121.307 333.15 121.424 332.787 121.424H332.387V122.624H333.971V127.504C333.971 128.336 334.179 128.976 334.595 129.424C335.011 129.872 335.603 130.096 336.371 130.096ZM342.335 130.192C342.868 130.192 343.348 130.08 343.775 129.856C344.201 129.632 344.543 129.328 344.799 128.944V130H345.999V121.424H344.799V126.528C344.799 127.296 344.585 127.899 344.159 128.336C343.743 128.773 343.204 128.992 342.543 128.992C341.892 128.992 341.359 128.784 340.943 128.368C340.527 127.941 340.319 127.381 340.319 126.688V121.424H339.118V126.832C339.118 127.493 339.257 128.08 339.535 128.592C339.823 129.093 340.212 129.488 340.703 129.776C341.193 130.053 341.737 130.192 342.335 130.192ZM350.946 130.192C351.608 130.192 352.205 130.059 352.738 129.792C353.272 129.525 353.677 129.184 353.954 128.768V130H355.154V124.112C355.154 123.547 355.016 123.051 354.738 122.624C354.472 122.187 354.093 121.845 353.602 121.6C353.122 121.355 352.568 121.232 351.938 121.232C351.458 121.232 350.994 121.323 350.546 121.504C350.098 121.675 349.698 121.909 349.346 122.208C349.005 122.507 348.754 122.837 348.594 123.2L349.682 123.792C349.874 123.376 350.168 123.04 350.562 122.784C350.957 122.517 351.416 122.384 351.938 122.384C352.536 122.384 353.021 122.544 353.394 122.864C353.768 123.184 353.954 123.6 353.954 124.112V124.56L350.85 125.072C349.901 125.232 349.208 125.557 348.77 126.048C348.333 126.539 348.114 127.115 348.114 127.776C348.114 128.245 348.237 128.661 348.482 129.024C348.728 129.387 349.064 129.675 349.49 129.888C349.917 130.091 350.402 130.192 350.946 130.192ZM349.394 127.728C349.394 127.333 349.528 126.992 349.794 126.704C350.072 126.416 350.52 126.219 351.138 126.112L353.954 125.648V126.288C353.954 126.811 353.832 127.285 353.586 127.712C353.341 128.139 353 128.48 352.562 128.736C352.125 128.981 351.613 129.104 351.026 129.104C350.546 129.104 350.152 128.971 349.842 128.704C349.544 128.437 349.394 128.112 349.394 127.728ZM357.623 130H358.823V117.888H357.623V130ZM367.278 130.096C367.374 130.096 367.502 130.091 367.662 130.08C367.822 130.069 367.966 130.048 368.094 130.016V128.928C368.008 128.939 367.907 128.949 367.79 128.96C367.672 128.971 367.571 128.976 367.486 128.976C366.952 128.976 366.584 128.837 366.382 128.56C366.179 128.283 366.078 127.931 366.078 127.504V122.624H367.966V121.424H366.078V119.44H364.878V120.16C364.878 120.523 364.771 120.827 364.558 121.072C364.344 121.307 364.056 121.424 363.694 121.424H363.294V122.624H364.878V127.504C364.878 128.336 365.086 128.976 365.502 129.424C365.918 129.872 366.51 130.096 367.278 130.096ZM373.904 130.192C374.704 130.192 375.43 130 376.08 129.616C376.742 129.232 377.27 128.704 377.664 128.032C378.059 127.349 378.256 126.571 378.256 125.696C378.256 124.832 378.064 124.064 377.68 123.392C377.307 122.72 376.79 122.192 376.128 121.808C375.478 121.424 374.736 121.232 373.904 121.232C373.072 121.232 372.326 121.429 371.664 121.824C371.014 122.208 370.496 122.736 370.112 123.408C369.728 124.08 369.536 124.843 369.536 125.696C369.536 126.56 369.728 127.333 370.112 128.016C370.507 128.688 371.035 129.221 371.696 129.616C372.358 130 373.094 130.192 373.904 130.192ZM373.904 128.992C373.328 128.992 372.806 128.848 372.336 128.56C371.878 128.272 371.51 127.877 371.232 127.376C370.955 126.875 370.816 126.315 370.816 125.696C370.816 125.077 370.955 124.523 371.232 124.032C371.51 123.541 371.878 123.152 372.336 122.864C372.806 122.576 373.328 122.432 373.904 122.432C374.48 122.432 374.998 122.576 375.456 122.864C375.926 123.152 376.294 123.541 376.56 124.032C376.838 124.523 376.976 125.077 376.976 125.696C376.976 126.315 376.838 126.875 376.56 127.376C376.294 127.877 375.926 128.272 375.456 128.56C374.998 128.848 374.48 128.992 373.904 128.992ZM383.413 130.192C383.946 130.192 384.426 130.08 384.853 129.856C385.279 129.632 385.621 129.328 385.877 128.944V130H387.077V121.424H385.877V126.528C385.877 127.296 385.663 127.899 385.237 128.336C384.821 128.773 384.282 128.992 383.621 128.992C382.97 128.992 382.437 128.784 382.021 128.368C381.605 127.941 381.397 127.381 381.397 126.688V121.424H380.197V126.832C380.197 127.493 380.335 128.08 380.613 128.592C380.901 129.093 381.29 129.488 381.781 129.776C382.271 130.053 382.815 130.192 383.413 130.192ZM389.545 130H390.745V124.72C390.745 124.016 390.931 123.472 391.305 123.088C391.678 122.704 392.174 122.512 392.793 122.512H393.545V121.312H393.001C392.478 121.312 392.025 121.403 391.641 121.584C391.267 121.765 390.969 122.021 390.745 122.352V121.424H389.545V130Z" fill="#4D5461"/>
<defs>
<filter id="filter0_d_601_2331" x="-10" y="0" width="510" height="212" filterUnits="userSpaceOnUse" color-interpolation-filters="sRGB">
<feFlood flood-opacity="0" result="BackgroundImageFix"/>
<feColorMatrix in="SourceAlpha" type="matrix" values="0 0 0 0 0 0 0 0 0 0 0 0 0 0 0 0 0 0 127 0" result="hardAlpha"/>
<feOffset/>
<feGaussianBlur stdDeviation="25"/>
<feComposite in2="hardAlpha" operator="out"/>
<feColorMatrix type="matrix" values="0 0 0 0 0.439216 0 0 0 0 0.396078 0 0 0 0 0.941176 0 0 0 0.2 0"/>
<feBlend mode="normal" in2="BackgroundImageFix" result="effect1_dropShadow_601_2331"/>
<feBlend mode="normal" in="SourceGraphic" in2="effect1_dropShadow_601_2331" result="shape"/>
</filter>
</defs>
</svg>
